<?xml version="1.0" encoding="utf-8"?>
<!-- Generator: Adobe Illustrator 21.1.0, SVG Export Plug-In . SVG Version: 6.00 Build 0)  -->
<svg version="1.1" id="Layer_1" xmlns="http://www.w3.org/2000/svg" xmlns:xlink="http://www.w3.org/1999/xlink" x="0px" y="0px"
	 viewBox="0 0 373.8 54.6" style="enable-background:new 0 0 373.8 54.6;" xml:space="preserve">
<style type="text/css">
	.st0{fill:#FFFFFF;stroke:#E5E5E5;stroke-miterlimit:10;}
	.st1{fill:#9CBE3B;}
	.st2{fill:#FFFFFF;}
</style>
<circle class="st0" cx="27.3" cy="27.3" r="26.8"/>
<path class="st1" d="M28,39.7c-0.8,0-1.6-0.1-2.4-0.3c-0.9-0.2-1.8-0.5-2.6-0.8c-0.8-0.3-1.6-0.8-2.3-1.4c-0.9-0.7-1.7-1.4-2.4-2.3
	c-0.6-0.8-1.1-1.6-1.5-2.5c-0.4-0.8-0.7-1.7-0.8-2.5c-0.1-0.6-0.2-1.2-0.2-1.8c-0.1-0.4-0.1-0.8-0.1-1.2c0.1-0.7,0.1-1.4,0.3-2
	c0.1-0.5,0.2-1,0.3-1.4c0.1-0.3,0.2-0.7,0.4-0.9c0.3-0.6,0.5-1.1,0.8-1.6c0.4-0.6,0.8-1.2,1.2-1.8c0.4-0.5,0.8-0.9,1.2-1.3
	c0.5-0.4,1-0.8,1.6-1.1c0.3-0.2,0.7-0.5,1.1-0.6c0.3-0.2,0.7-0.3,1-0.5c0.4-0.1,0.8-0.3,1.2-0.4c0.7-0.1,1.3-0.3,2-0.3
	c0.3-0.1,0.6-0.1,0.8-0.1c0.3,0,0.7,0,1,0c0.6,0,1.2,0.1,1.8,0.3c0.5,0.1,1,0.2,1.4,0.3c0.3,0.1,0.7,0.2,1,0.3
	c0.6,0.3,1.1,0.5,1.6,0.8c1,0.6,2,1.4,2.7,2.2c0.5,0.6,1,1.2,1.4,1.9c0.3,0.7,0.5,1.4,0.3,2.2c-0.1,0.5-0.3,0.8-0.5,1.2
	c-0.3,0.5-0.7,0.7-1.2,1c-0.6,0.3-1.2,0.4-1.9,0.3c-0.7-0.1-1.4-0.4-1.9-1c-0.4-0.5-0.8-1-1.2-1.4c-0.5-0.5-1-0.8-1.6-1.1
	c-1-0.5-2.1-0.7-3.1-0.5c-1,0.1-1.9,0.4-2.7,1c-0.5,0.3-0.9,0.7-1.2,1.1c-0.5,0.6-0.8,1.2-1.1,2c-0.3,0.8-0.3,1.8-0.3,2.7
	c0,0.4,0.1,0.7,0.3,1c0.1,0.5,0.3,0.8,0.6,1.3c0.4,0.7,1,1.2,1.6,1.8c0.6,0.4,1.2,0.7,1.9,0.9c0.9,0.3,1.9,0.3,2.9,0.1
	c0.8-0.2,1.5-0.5,2.2-1c0.5-0.3,0.8-0.7,1.2-1.1c0.2-0.2,0.3-0.4,0.5-0.6c0.7-1,1.8-1.5,3-1.4c1.1,0.1,2,0.7,2.5,1.7
	c0.3,0.6,0.5,1.2,0.4,1.9c-0.1,0.6-0.3,1.1-0.7,1.6C38,35,37.5,35.5,37,36.1c-0.3,0.3-0.7,0.7-1,1c-0.7,0.5-1.3,1-2,1.3
	c-0.7,0.3-1.4,0.6-2.1,0.8c-0.6,0.2-1.2,0.3-1.8,0.5C29.3,39.7,28.6,39.7,28,39.7z"/>
<g>
	<path class="st2" d="M87.4,41.9c-4.5,0-8-1.3-10.4-3.8s-3.6-6.1-3.6-10.8c0-2.3,0.4-4.4,1.1-6.2s1.7-3.3,3-4.6
		c1.3-1.2,2.8-2.2,4.5-2.8c1.7-0.6,3.6-1,5.7-1c1.2,0,2.3,0.1,3.2,0.3s1.8,0.4,2.5,0.6c0.7,0.2,1.3,0.5,1.8,0.7
		c0.5,0.2,0.8,0.4,1,0.6l-1.8,5.1c-0.9-0.5-1.9-0.8-3-1.2c-1.1-0.3-2.4-0.5-3.9-0.5c-1,0-1.9,0.2-2.8,0.5c-0.9,0.3-1.7,0.8-2.5,1.6
		c-0.7,0.7-1.3,1.6-1.7,2.8c-0.4,1.1-0.6,2.5-0.6,4.1c0,1.3,0.1,2.5,0.4,3.6s0.7,2.1,1.4,2.9c0.6,0.8,1.5,1.4,2.5,1.9
		c1,0.5,2.3,0.7,3.7,0.7c0.9,0,1.7-0.1,2.5-0.2c0.7-0.1,1.4-0.2,1.9-0.4c0.6-0.1,1.1-0.3,1.5-0.5c0.4-0.2,0.8-0.4,1.2-0.5l1.7,5
		c-0.9,0.5-2.1,1-3.7,1.5C91.4,41.6,89.5,41.9,87.4,41.9z"/>
	<path class="st2" d="M126.4,27.3c0,2.4-0.4,4.5-1.1,6.3c-0.7,1.8-1.7,3.3-2.9,4.6c-1.2,1.2-2.7,2.1-4.4,2.8
		c-1.7,0.6-3.5,0.9-5.5,0.9c-1.9,0-3.7-0.3-5.4-0.9c-1.7-0.6-3.2-1.5-4.4-2.8c-1.3-1.2-2.3-2.7-3-4.6c-0.7-1.8-1.1-3.9-1.1-6.3
		c0-2.4,0.4-4.5,1.1-6.3c0.8-1.8,1.8-3.3,3-4.6c1.3-1.2,2.8-2.2,4.4-2.8c1.7-0.6,3.4-0.9,5.3-0.9c1.9,0,3.7,0.3,5.4,0.9
		c1.7,0.6,3.2,1.5,4.4,2.8c1.3,1.2,2.3,2.8,3,4.6S126.4,24.9,126.4,27.3z M105.1,27.3c0,1.4,0.2,2.6,0.5,3.7c0.3,1.1,0.8,2,1.5,2.8
		c0.6,0.8,1.4,1.4,2.3,1.8c0.9,0.4,2,0.6,3.1,0.6c1.2,0,2.2-0.2,3.1-0.6c0.9-0.4,1.7-1,2.3-1.8c0.6-0.8,1.1-1.7,1.5-2.8
		c0.3-1.1,0.5-2.3,0.5-3.7c0-1.4-0.2-2.6-0.5-3.7c-0.3-1.1-0.8-2.1-1.5-2.9c-0.6-0.8-1.4-1.4-2.3-1.8c-0.9-0.4-2-0.6-3.1-0.6
		c-1.2,0-2.2,0.2-3.1,0.7c-0.9,0.4-1.7,1.1-2.3,1.9c-0.6,0.8-1.1,1.7-1.5,2.9C105.2,24.7,105.1,26,105.1,27.3z"/>
	<path class="st2" d="M150.4,41.3c-1.8-3.2-3.7-6.4-5.8-9.5c-2.1-3.1-4.3-6.1-6.7-8.8v18.3h-6.2V13.4h5.1c0.9,0.9,1.9,2,2.9,3.3
		c1.1,1.3,2.2,2.7,3.3,4.1s2.2,3,3.3,4.6c1.1,1.6,2.1,3.1,3.1,4.5V13.4h6.2v27.9H150.4z"/>
	<path class="st2" d="M180.8,41.3c-1.8-3.2-3.7-6.4-5.8-9.5c-2.1-3.1-4.3-6.1-6.7-8.8v18.3h-6.2V13.4h5.1c0.9,0.9,1.9,2,2.9,3.3
		c1.1,1.3,2.2,2.7,3.3,4.1s2.2,3,3.3,4.6c1.1,1.6,2.1,3.1,3.1,4.5V13.4h6.2v27.9H180.8z"/>
	<path class="st2" d="M192.6,41.3V13.4h18.9v5.3h-12.6v5.5H210v5.2h-11.2V36h13.5v5.3H192.6z"/>
	<path class="st2" d="M229.7,41.9c-4.5,0-8-1.3-10.4-3.8c-2.4-2.5-3.6-6.1-3.6-10.8c0-2.3,0.4-4.4,1.1-6.2s1.7-3.3,3-4.6
		c1.3-1.2,2.8-2.2,4.5-2.8c1.7-0.6,3.6-1,5.7-1c1.2,0,2.3,0.1,3.2,0.3c1,0.2,1.8,0.4,2.5,0.6c0.7,0.2,1.3,0.5,1.8,0.7
		c0.5,0.2,0.8,0.4,1,0.6l-1.8,5.1c-0.9-0.5-1.9-0.8-3-1.2c-1.1-0.3-2.4-0.5-3.9-0.5c-1,0-1.9,0.2-2.8,0.5c-0.9,0.3-1.7,0.8-2.5,1.6
		c-0.7,0.7-1.3,1.6-1.7,2.8s-0.6,2.5-0.6,4.1c0,1.3,0.1,2.5,0.4,3.6s0.7,2.1,1.4,2.9c0.6,0.8,1.5,1.4,2.5,1.9c1,0.5,2.3,0.7,3.7,0.7
		c0.9,0,1.7-0.1,2.5-0.2c0.7-0.1,1.4-0.2,1.9-0.4c0.6-0.1,1.1-0.3,1.5-0.5c0.4-0.2,0.8-0.4,1.2-0.5l1.7,5c-0.9,0.5-2.1,1-3.7,1.5
		C233.7,41.6,231.9,41.9,229.7,41.9z"/>
	<path class="st2" d="M264.7,13.4v5.4h-8.4v22.6H250V18.7h-8.4v-5.4H264.7z"/>
	<path class="st2" d="M286.8,13c4.2,0,7.4,0.7,9.6,2.2c2.2,1.5,3.3,3.9,3.3,7.2c0,3.4-1.1,5.8-3.4,7.3c-2.3,1.5-5.5,2.2-9.7,2.2h-2
		v9.4h-6.3V13.8c1.4-0.3,2.8-0.5,4.4-0.6C284.3,13.1,285.6,13,286.8,13z M287.2,18.4c-0.5,0-0.9,0-1.3,0c-0.4,0-0.8,0.1-1.1,0.1v8.1
		h2c2.2,0,3.8-0.3,4.9-0.9c1.1-0.6,1.7-1.7,1.7-3.3c0-0.8-0.1-1.4-0.4-1.9c-0.3-0.5-0.7-0.9-1.2-1.2c-0.5-0.3-1.2-0.5-1.9-0.6
		C288.9,18.5,288.1,18.4,287.2,18.4z"/>
	<path class="st2" d="M323,35.9v5.4h-18.7V13.4h6.3v22.5H323z"/>
	<path class="st2" d="M337.6,41.9c-2,0-3.7-0.3-5.1-0.8c-1.4-0.6-2.6-1.3-3.5-2.3s-1.6-2.2-2.1-3.5c-0.4-1.4-0.7-2.9-0.7-4.5V13.4
		h6.3v16.9c0,1.1,0.1,2.1,0.4,2.9c0.3,0.8,0.6,1.4,1,1.9c0.4,0.5,1,0.9,1.6,1.1c0.6,0.2,1.3,0.3,2.1,0.3c1.5,0,2.8-0.5,3.7-1.4
		c1-0.9,1.4-2.5,1.4-4.8V13.4h6.3v17.4c0,1.6-0.2,3.1-0.7,4.5c-0.5,1.4-1.2,2.5-2.1,3.5c-0.9,1-2.1,1.7-3.6,2.3
		C341.3,41.6,339.6,41.9,337.6,41.9z"/>
	<path class="st2" d="M362.8,36.5c0.9,0,1.6-0.1,2.2-0.2s1-0.3,1.4-0.6c0.3-0.3,0.6-0.6,0.7-0.9s0.2-0.7,0.2-1.2
		c0-0.9-0.4-1.7-1.3-2.3c-0.9-0.6-2.3-1.3-4.4-2c-0.9-0.3-1.8-0.7-2.7-1.1c-0.9-0.4-1.7-0.9-2.5-1.6c-0.7-0.6-1.3-1.4-1.8-2.3
		c-0.5-0.9-0.7-2-0.7-3.3c0-1.3,0.2-2.5,0.7-3.5c0.5-1,1.2-1.9,2.1-2.6s2-1.3,3.2-1.7c1.3-0.4,2.7-0.6,4.3-0.6
		c1.9,0,3.5,0.2,4.9,0.6c1.4,0.4,2.5,0.8,3.4,1.3l-1.8,5c-0.8-0.4-1.6-0.8-2.6-1.1c-1-0.3-2.1-0.5-3.4-0.5c-1.5,0-2.6,0.2-3.2,0.6
		c-0.7,0.4-1,1.1-1,1.9c0,0.5,0.1,0.9,0.4,1.3c0.2,0.3,0.6,0.7,1,0.9s1,0.5,1.5,0.8c0.6,0.2,1.2,0.5,1.9,0.7
		c1.5,0.5,2.7,1.1,3.8,1.6c1.1,0.5,2,1.1,2.7,1.8c0.7,0.7,1.2,1.5,1.6,2.5c0.3,0.9,0.5,2.1,0.5,3.4c0,2.6-0.9,4.6-2.7,6.1
		c-1.8,1.4-4.6,2.2-8.3,2.2c-1.2,0-2.4-0.1-3.3-0.2c-1-0.1-1.9-0.3-2.6-0.5c-0.8-0.2-1.4-0.4-2-0.7c-0.6-0.2-1-0.5-1.4-0.7l1.8-5
		c0.8,0.5,1.9,0.9,3.1,1.2C359.5,36.3,361,36.5,362.8,36.5z"/>
</g>
</svg>
